# xmcd
#
# Track frame offsets:
#	150
#	18230
#	30638
#	43998
#	60812
#	70604
#	84939
#	98109
#	106824
#	121205
#	135777
#	148538
#	164937
#	181052
#	203817
#	222293
#	240546
#	259315
#	280113
#	298583
#
# Disc length: 4245 seconds
#
# Revision: 1
# Processed by: cddbd v1.5.2PL0 Copyright (c) Steve Scherf et al.
# Submitted via: audiograbber 1.83.01
#
DISCID=14109314
DTITLE=Markus Heitz - Totenblick
DYEAR=2013
DGENRE=Thriller
TTITLE0=001 Totenblick
TTITLE1=002 Totenblick
TTITLE2=003 Totenblick
TTITLE3=004 Totenblick
TTITLE4=005 Totenblick
TTITLE5=006 Totenblick
TTITLE6=007 Totenblick
TTITLE7=008 Totenblick
TTITLE8=009 Totenblick
TTITLE9=010 Totenblick
TTITLE10=011 Totenblick
TTITLE11=012 Totenblick
TTITLE12=013 Totenblick
TTITLE13=014 Totenblick
TTITLE14=015 Totenblick
TTITLE15=016 Totenblick
TTITLE16=017 Totenblick
TTITLE17=018 Totenblick
TTITLE18=019 Totenblick
TTITLE19=020 Totenblick
EXTD=
EXTT0=
EXTT1=
EXTT2=
EXTT3=
EXTT4=
EXTT5=
EXTT6=
EXTT7=
EXTT8=
EXTT9=
EXTT10=
EXTT11=
EXTT12=
EXTT13=
EXTT14=
EXTT15=
EXTT16=
EXTT17=
EXTT18=
EXTT19=
PLAYORDER=
